<mxfile host="app.diagrams.net" modified="2023-08-18T06:50:13.635Z" agent="Mozilla/5.0 (X11; Ubuntu; Linux x86_64; rv:109.0) Gecko/20100101 Firefox/110.0" version="21.6.8" etag="xMjbPMsmQ54fdU8jlNNZ" type="github">
  <diagram name="Page-1" id="bbNpDcok5v9fHwa2r4f9">
    <mxGraphModel>
      <root>
        <mxCell id="0" />
        <mxCell id="1" parent="0" />
      </root>
    </mxGraphModel>
  </diagram>
</mxfile>
